<?xml version="1.0" encoding="UTF-8" standalone="no"?>
<!DOCTYPE svg PUBLIC "-//W3C//DTD SVG 1.1//EN"
 "http://www.w3.org/Graphics/SVG/1.1/DTD/svg11.dtd">
<!-- Generated by graphviz version 2.40.1 (20161225.0304)
 -->
<!-- Title: Tree Pages: 1 -->
<svg width="767pt" height="671pt"
 viewBox="0.00 0.00 767.00 671.00" xmlns="http://www.w3.org/2000/svg" xmlns:xlink="http://www.w3.org/1999/xlink">
<g id="graph0" class="graph" transform="scale(1 1) rotate(0) translate(4 667)">
<title>Tree</title>
<polygon fill="#ffffff" stroke="transparent" points="-4,4 -4,-667 763,-667 763,4 -4,4"/>
<!-- 0 -->
<g id="node1" class="node">
<title>0</title>
<polygon fill="#fffdfd" stroke="#000000" points="276.5,-663 112.5,-663 112.5,-580 276.5,-580 276.5,-663"/>
<text text-anchor="middle" x="194.5" y="-647.8" font-family="Times,serif" font-size="14.00" fill="#000000">petal length (cm) &lt;= 2.45</text>
<text text-anchor="middle" x="194.5" y="-632.8" font-family="Times,serif" font-size="14.00" fill="#000000">gini = 0.667</text>
<text text-anchor="middle" x="194.5" y="-617.8" font-family="Times,serif" font-size="14.00" fill="#000000">samples = 120</text>
<text text-anchor="middle" x="194.5" y="-602.8" font-family="Times,serif" font-size="14.00" fill="#000000">value = [41, 40, 39]</text>
<text text-anchor="middle" x="194.5" y="-587.8" font-family="Times,serif" font-size="14.00" fill="#000000">class = setosa</text>
</g>
<!-- 1 -->
<g id="node2" class="node">
<title>1</title>
<polygon fill="#e58139" stroke="#000000" points="175,-536.5 58,-536.5 58,-468.5 175,-468.5 175,-536.5"/>
<text text-anchor="middle" x="116.5" y="-521.3" font-family="Times,serif" font-size="14.00" fill="#000000">gini = 0.0</text>
<text text-anchor="middle" x="116.5" y="-506.3" font-family="Times,serif" font-size="14.00" fill="#000000">samples = 41</text>
<text text-anchor="middle" x="116.5" y="-491.3" font-family="Times,serif" font-size="14.00" fill="#000000">value = [41, 0, 0]</text>
<text text-anchor="middle" x="116.5" y="-476.3" font-family="Times,serif" font-size="14.00" fill="#000000">class = setosa</text>
</g>
<!-- 0&#45;&gt;1 -->
<g id="edge1" class="edge">
<title>0&#45;&gt;1</title>
<path fill="none" stroke="#000000" d="M167.2194,-579.8796C159.8677,-568.6636 151.9036,-556.5131 144.5126,-545.2372"/>
<polygon fill="#000000" stroke="#000000" points="147.4014,-543.2598 138.9921,-536.8149 141.5469,-547.0972 147.4014,-543.2598"/>
<text text-anchor="middle" x="133.8982" y="-557.5905" font-family="Times,serif" font-size="14.00" fill="#000000">True</text>
</g>
<!-- 2 -->
<g id="node3" class="node">
<title>2</title>
<polygon fill="#fafefc" stroke="#000000" points="354,-544 193,-544 193,-461 354,-461 354,-544"/>
<text text-anchor="middle" x="273.5" y="-528.8" font-family="Times,serif" font-size="14.00" fill="#000000">petal width (cm) &lt;= 1.55</text>
<text text-anchor="middle" x="273.5" y="-513.8" font-family="Times,serif" font-size="14.00" fill="#000000">gini = 0.5</text>
<text text-anchor="middle" x="273.5" y="-498.8" font-family="Times,serif" font-size="14.00" fill="#000000">samples = 79</text>
<text text-anchor="middle" x="273.5" y="-483.8" font-family="Times,serif" font-size="14.00" fill="#000000">value = [0, 40, 39]</text>
<text text-anchor="middle" x="273.5" y="-468.8" font-family="Times,serif" font-size="14.00" fill="#000000">class = versicolor</text>
</g>
<!-- 0&#45;&gt;2 -->
<g id="edge2" class="edge">
<title>0&#45;&gt;2</title>
<path fill="none" stroke="#000000" d="M222.1304,-579.8796C227.93,-571.1434 234.1059,-561.8404 240.0908,-552.8253"/>
<polygon fill="#000000" stroke="#000000" points="243.1368,-554.5652 245.7517,-544.2981 237.3049,-550.6935 243.1368,-554.5652"/>
<text text-anchor="middle" x="250.7022" y="-565.103" font-family="Times,serif" font-size="14.00" fill="#000000">False</text>
</g>
<!-- 3 -->
<g id="node4" class="node">
<title>3</title>
<polygon fill="#3ee684" stroke="#000000" points="265.5,-425 101.5,-425 101.5,-342 265.5,-342 265.5,-425"/>
<text text-anchor="middle" x="183.5" y="-409.8" font-family="Times,serif" font-size="14.00" fill="#000000">petal length (cm) &lt;= 5.25</text>
<text text-anchor="middle" x="183.5" y="-394.8" font-family="Times,serif" font-size="14.00" fill="#000000">gini = 0.051</text>
<text text-anchor="middle" x="183.5" y="-379.8" font-family="Times,serif" font-size="14.00" fill="#000000">samples = 38</text>
<text text-anchor="middle" x="183.5" y="-364.8" font-family="Times,serif" font-size="14.00" fill="#000000">value = [0, 37, 1]</text>
<text text-anchor="middle" x="183.5" y="-349.8" font-family="Times,serif" font-size="14.00" fill="#000000">class = versicolor</text>
</g>
<!-- 2&#45;&gt;3 -->
<g id="edge3" class="edge">
<title>2&#45;&gt;3</title>
<path fill="none" stroke="#000000" d="M242.0224,-460.8796C235.3471,-452.0534 228.2342,-442.6485 221.3504,-433.5466"/>
<polygon fill="#000000" stroke="#000000" points="223.9357,-431.1626 215.112,-425.2981 218.3526,-435.3852 223.9357,-431.1626"/>
</g>
<!-- 6 -->
<g id="node7" class="node">
<title>6</title>
<polygon fill="#8b49e7" stroke="#000000" points="445,-425 284,-425 284,-342 445,-342 445,-425"/>
<text text-anchor="middle" x="364.5" y="-409.8" font-family="Times,serif" font-size="14.00" fill="#000000">petal width (cm) &lt;= 1.75</text>
<text text-anchor="middle" x="364.5" y="-394.8" font-family="Times,serif" font-size="14.00" fill="#000000">gini = 0.136</text>
<text text-anchor="middle" x="364.5" y="-379.8" font-family="Times,serif" font-size="14.00" fill="#000000">samples = 41</text>
<text text-anchor="middle" x="364.5" y="-364.8" font-family="Times,serif" font-size="14.00" fill="#000000">value = [0, 3, 38]</text>
<text text-anchor="middle" x="364.5" y="-349.8" font-family="Times,serif" font-size="14.00" fill="#000000">class = virginica</text>
</g>
<!-- 2&#45;&gt;6 -->
<g id="edge6" class="edge">
<title>2&#45;&gt;6</title>
<path fill="none" stroke="#000000" d="M305.3274,-460.8796C312.1457,-451.9633 319.4156,-442.4565 326.4421,-433.268"/>
<polygon fill="#000000" stroke="#000000" points="329.2425,-435.3678 332.5368,-425.2981 323.682,-431.1156 329.2425,-435.3678"/>
</g>
<!-- 4 -->
<g id="node5" class="node">
<title>4</title>
<polygon fill="#39e581" stroke="#000000" points="117,-298.5 0,-298.5 0,-230.5 117,-230.5 117,-298.5"/>
<text text-anchor="middle" x="58.5" y="-283.3" font-family="Times,serif" font-size="14.00" fill="#000000">gini = 0.0</text>
<text text-anchor="middle" x="58.5" y="-268.3" font-family="Times,serif" font-size="14.00" fill="#000000">samples = 37</text>
<text text-anchor="middle" x="58.5" y="-253.3" font-family="Times,serif" font-size="14.00" fill="#000000">value = [0, 37, 0]</text>
<text text-anchor="middle" x="58.5" y="-238.3" font-family="Times,serif" font-size="14.00" fill="#000000">class = versicolor</text>
</g>
<!-- 3&#45;&gt;4 -->
<g id="edge4" class="edge">
<title>3&#45;&gt;4</title>
<path fill="none" stroke="#000000" d="M139.7811,-341.8796C127.5375,-330.2237 114.2339,-317.5587 102.0029,-305.9148"/>
<polygon fill="#000000" stroke="#000000" points="104.2012,-303.1751 94.5451,-298.8149 99.3746,-308.245 104.2012,-303.1751"/>
</g>
<!-- 5 -->
<g id="node6" class="node">
<title>5</title>
<polygon fill="#8139e5" stroke="#000000" points="245.5,-298.5 135.5,-298.5 135.5,-230.5 245.5,-230.5 245.5,-298.5"/>
<text text-anchor="middle" x="190.5" y="-283.3" font-family="Times,serif" font-size="14.00" fill="#000000">gini = 0.0</text>
<text text-anchor="middle" x="190.5" y="-268.3" font-family="Times,serif" font-size="14.00" fill="#000000">samples = 1</text>
<text text-anchor="middle" x="190.5" y="-253.3" font-family="Times,serif" font-size="14.00" fill="#000000">value = [0, 0, 1]</text>
<text text-anchor="middle" x="190.5" y="-238.3" font-family="Times,serif" font-size="14.00" fill="#000000">class = virginica</text>
</g>
<!-- 3&#45;&gt;5 -->
<g id="edge5" class="edge">
<title>3&#45;&gt;5</title>
<path fill="none" stroke="#000000" d="M185.9483,-341.8796C186.5757,-331.2134 187.2528,-319.7021 187.8881,-308.9015"/>
<polygon fill="#000000" stroke="#000000" points="191.3881,-309.0032 188.4815,-298.8149 184.4002,-308.5921 191.3881,-309.0032"/>
</g>
<!-- 7 -->
<g id="node8" class="node">
<title>7</title>
<polygon fill="#ffffff" stroke="#000000" points="441,-306 276,-306 276,-223 441,-223 441,-306"/>
<text text-anchor="middle" x="358.5" y="-290.8" font-family="Times,serif" font-size="14.00" fill="#000000">sepal length (cm) &lt;= 5.45</text>
<text text-anchor="middle" x="358.5" y="-275.8" font-family="Times,serif" font-size="14.00" fill="#000000">gini = 0.5</text>
<text text-anchor="middle" x="358.5" y="-260.8" font-family="Times,serif" font-size="14.00" fill="#000000">samples = 4</text>
<text text-anchor="middle" x="358.5" y="-245.8" font-family="Times,serif" font-size="14.00" fill="#000000">value = [0, 2, 2]</text>
<text text-anchor="middle" x="358.5" y="-230.8" font-family="Times,serif" font-size="14.00" fill="#000000">class = versicolor</text>
</g>
<!-- 6&#45;&gt;7 -->
<g id="edge7" class="edge">
<title>6&#45;&gt;7</title>
<path fill="none" stroke="#000000" d="M362.4015,-341.8796C361.9883,-333.6838 361.5499,-324.9891 361.1219,-316.5013"/>
<polygon fill="#000000" stroke="#000000" points="364.6067,-316.1091 360.6075,-306.2981 357.6156,-316.4617 364.6067,-316.1091"/>
</g>
<!-- 12 -->
<g id="node13" class="node">
<title>12</title>
<polygon fill="#843ee6" stroke="#000000" points="623.5,-306 459.5,-306 459.5,-223 623.5,-223 623.5,-306"/>
<text text-anchor="middle" x="541.5" y="-290.8" font-family="Times,serif" font-size="14.00" fill="#000000">petal length (cm) &lt;= 4.85</text>
<text text-anchor="middle" x="541.5" y="-275.8" font-family="Times,serif" font-size="14.00" fill="#000000">gini = 0.053</text>
<text text-anchor="middle" x="541.5" y="-260.8" font-family="Times,serif" font-size="14.00" fill="#000000">samples = 37</text>
<text text-anchor="middle" x="541.5" y="-245.8" font-family="Times,serif" font-size="14.00" fill="#000000">value = [0, 1, 36]</text>
<text text-anchor="middle" x="541.5" y="-230.8" font-family="Times,serif" font-size="14.00" fill="#000000">class = virginica</text>
</g>
<!-- 6&#45;&gt;12 -->
<g id="edge12" class="edge">
<title>6&#45;&gt;12</title>
<path fill="none" stroke="#000000" d="M426.406,-341.8796C440.823,-332.1868 456.278,-321.7961 471.0344,-311.8752"/>
<polygon fill="#000000" stroke="#000000" points="473.2829,-314.581 479.6289,-306.0969 469.3773,-308.7718 473.2829,-314.581"/>
</g>
<!-- 8 -->
<g id="node9" class="node">
<title>8</title>
<polygon fill="#8139e5" stroke="#000000" points="258.5,-179.5 148.5,-179.5 148.5,-111.5 258.5,-111.5 258.5,-179.5"/>
<text text-anchor="middle" x="203.5" y="-164.3" font-family="Times,serif" font-size="14.00" fill="#000000">gini = 0.0</text>
<text text-anchor="middle" x="203.5" y="-149.3" font-family="Times,serif" font-size="14.00" fill="#000000">samples = 1</text>
<text text-anchor="middle" x="203.5" y="-134.3" font-family="Times,serif" font-size="14.00" fill="#000000">value = [0, 0, 1]</text>
<text text-anchor="middle" x="203.5" y="-119.3" font-family="Times,serif" font-size="14.00" fill="#000000">class = virginica</text>
</g>
<!-- 7&#45;&gt;8 -->
<g id="edge8" class="edge">
<title>7&#45;&gt;8</title>
<path fill="none" stroke="#000000" d="M304.2885,-222.8796C288.6769,-210.8938 271.6753,-197.841 256.1592,-185.9287"/>
<polygon fill="#000000" stroke="#000000" points="258.2593,-183.1285 248.1959,-179.8149 253.9965,-188.6808 258.2593,-183.1285"/>
</g>
<!-- 9 -->
<g id="node10" class="node">
<title>9</title>
<polygon fill="#9cf2c0" stroke="#000000" points="440.5,-187 276.5,-187 276.5,-104 440.5,-104 440.5,-187"/>
<text text-anchor="middle" x="358.5" y="-171.8" font-family="Times,serif" font-size="14.00" fill="#000000">petal length (cm) &lt;= 5.45</text>
<text text-anchor="middle" x="358.5" y="-156.8" font-family="Times,serif" font-size="14.00" fill="#000000">gini = 0.444</text>
<text text-anchor="middle" x="358.5" y="-141.8" font-family="Times,serif" font-size="14.00" fill="#000000">samples = 3</text>
<text text-anchor="middle" x="358.5" y="-126.8" font-family="Times,serif" font-size="14.00" fill="#000000">value = [0, 2, 1]</text>
<text text-anchor="middle" x="358.5" y="-111.8" font-family="Times,serif" font-size="14.00" fill="#000000">class = versicolor</text>
</g>
<!-- 7&#45;&gt;9 -->
<g id="edge9" class="edge">
<title>7&#45;&gt;9</title>
<path fill="none" stroke="#000000" d="M358.5,-222.8796C358.5,-214.6838 358.5,-205.9891 358.5,-197.5013"/>
<polygon fill="#000000" stroke="#000000" points="362.0001,-197.298 358.5,-187.2981 355.0001,-197.2981 362.0001,-197.298"/>
</g>
<!-- 10 -->
<g id="node11" class="node">
<title>10</title>
<polygon fill="#39e581" stroke="#000000" points="298,-68 183,-68 183,0 298,0 298,-68"/>
<text text-anchor="middle" x="240.5" y="-52.8" font-family="Times,serif" font-size="14.00" fill="#000000">gini = 0.0</text>
<text text-anchor="middle" x="240.5" y="-37.8" font-family="Times,serif" font-size="14.00" fill="#000000">samples = 2</text>
<text text-anchor="middle" x="240.5" y="-22.8" font-family="Times,serif" font-size="14.00" fill="#000000">value = [0, 2, 0]</text>
<text text-anchor="middle" x="240.5" y="-7.8" font-family="Times,serif" font-size="14.00" fill="#000000">class = versicolor</text>
</g>
<!-- 9&#45;&gt;10 -->
<g id="edge10" class="edge">
<title>9&#45;&gt;10</title>
<path fill="none" stroke="#000000" d="M314.5612,-103.9815C304.6402,-94.607 294.1103,-84.6572 284.1992,-75.2921"/>
<polygon fill="#000000" stroke="#000000" points="286.4334,-72.5878 276.7611,-68.2637 281.6257,-77.6757 286.4334,-72.5878"/>
</g>
<!-- 11 -->
<g id="node12" class="node">
<title>11</title>
<polygon fill="#8139e5" stroke="#000000" points="426.5,-68 316.5,-68 316.5,0 426.5,0 426.5,-68"/>
<text text-anchor="middle" x="371.5" y="-52.8" font-family="Times,serif" font-size="14.00" fill="#000000">gini = 0.0</text>
<text text-anchor="middle" x="371.5" y="-37.8" font-family="Times,serif" font-size="14.00" fill="#000000">samples = 1</text>
<text text-anchor="middle" x="371.5" y="-22.8" font-family="Times,serif" font-size="14.00" fill="#000000">value = [0, 0, 1]</text>
<text text-anchor="middle" x="371.5" y="-7.8" font-family="Times,serif" font-size="14.00" fill="#000000">class = virginica</text>
</g>
<!-- 9&#45;&gt;11 -->
<g id="edge11" class="edge">
<title>9&#45;&gt;11</title>
<path fill="none" stroke="#000000" d="M363.3407,-103.9815C364.3158,-95.618 365.3443,-86.7965 366.3302,-78.3409"/>
<polygon fill="#000000" stroke="#000000" points="369.8234,-78.6017 367.5051,-68.2637 362.8705,-77.791 369.8234,-78.6017"/>
</g>
<!-- 13 -->
<g id="node14" class="node">
<title>13</title>
<polygon fill="#c09cf2" stroke="#000000" points="624,-187 459,-187 459,-104 624,-104 624,-187"/>
<text text-anchor="middle" x="541.5" y="-171.8" font-family="Times,serif" font-size="14.00" fill="#000000">sepal length (cm) &lt;= 5.95</text>
<text text-anchor="middle" x="541.5" y="-156.8" font-family="Times,serif" font-size="14.00" fill="#000000">gini = 0.444</text>
<text text-anchor="middle" x="541.5" y="-141.8" font-family="Times,serif" font-size="14.00" fill="#000000">samples = 3</text>
<text text-anchor="middle" x="541.5" y="-126.8" font-family="Times,serif" font-size="14.00" fill="#000000">value = [0, 1, 2]</text>
<text text-anchor="middle" x="541.5" y="-111.8" font-family="Times,serif" font-size="14.00" fill="#000000">class = virginica</text>
</g>
<!-- 12&#45;&gt;13 -->
<g id="edge13" class="edge">
<title>12&#45;&gt;13</title>
<path fill="none" stroke="#000000" d="M541.5,-222.8796C541.5,-214.6838 541.5,-205.9891 541.5,-197.5013"/>
<polygon fill="#000000" stroke="#000000" points="545.0001,-197.298 541.5,-187.2981 538.0001,-197.2981 545.0001,-197.298"/>
</g>
<!-- 16 -->
<g id="node17" class="node">
<title>16</title>
<polygon fill="#8139e5" stroke="#000000" points="759,-179.5 642,-179.5 642,-111.5 759,-111.5 759,-179.5"/>
<text text-anchor="middle" x="700.5" y="-164.3" font-family="Times,serif" font-size="14.00" fill="#000000">gini = 0.0</text>
<text text-anchor="middle" x="700.5" y="-149.3" font-family="Times,serif" font-size="14.00" fill="#000000">samples = 34</text>
<text text-anchor="middle" x="700.5" y="-134.3" font-family="Times,serif" font-size="14.00" fill="#000000">value = [0, 0, 34]</text>
<text text-anchor="middle" x="700.5" y="-119.3" font-family="Times,serif" font-size="14.00" fill="#000000">class = virginica</text>
</g>
<!-- 12&#45;&gt;16 -->
<g id="edge16" class="edge">
<title>12&#45;&gt;16</title>
<path fill="none" stroke="#000000" d="M597.1105,-222.8796C613.2013,-210.8368 630.7315,-197.7167 646.7091,-185.7586"/>
<polygon fill="#000000" stroke="#000000" points="648.9982,-188.4171 654.907,-179.623 644.8038,-182.8129 648.9982,-188.4171"/>
</g>
<!-- 14 -->
<g id="node15" class="node">
<title>14</title>
<polygon fill="#39e581" stroke="#000000" points="586,-68 471,-68 471,0 586,0 586,-68"/>
<text text-anchor="middle" x="528.5" y="-52.8" font-family="Times,serif" font-size="14.00" fill="#000000">gini = 0.0</text>
<text text-anchor="middle" x="528.5" y="-37.8" font-family="Times,serif" font-size="14.00" fill="#000000">samples = 1</text>
<text text-anchor="middle" x="528.5" y="-22.8" font-family="Times,serif" font-size="14.00" fill="#000000">value = [0, 1, 0]</text>
<text text-anchor="middle" x="528.5" y="-7.8" font-family="Times,serif" font-size="14.00" fill="#000000">class = versicolor</text>
</g>
<!-- 13&#45;&gt;14 -->
<g id="edge14" class="edge">
<title>13&#45;&gt;14</title>
<path fill="none" stroke="#000000" d="M536.6593,-103.9815C535.6842,-95.618 534.6557,-86.7965 533.6698,-78.3409"/>
<polygon fill="#000000" stroke="#000000" points="537.1295,-77.791 532.4949,-68.2637 530.1766,-78.6017 537.1295,-77.791"/>
</g>
<!-- 15 -->
<g id="node16" class="node">
<title>15</title>
<polygon fill="#8139e5" stroke="#000000" points="714.5,-68 604.5,-68 604.5,0 714.5,0 714.5,-68"/>
<text text-anchor="middle" x="659.5" y="-52.8" font-family="Times,serif" font-size="14.00" fill="#000000">gini = 0.0</text>
<text text-anchor="middle" x="659.5" y="-37.8" font-family="Times,serif" font-size="14.00" fill="#000000">samples = 2</text>
<text text-anchor="middle" x="659.5" y="-22.8" font-family="Times,serif" font-size="14.00" fill="#000000">value = [0, 0, 2]</text>
<text text-anchor="middle" x="659.5" y="-7.8" font-family="Times,serif" font-size="14.00" fill="#000000">class = virginica</text>
</g>
<!-- 13&#45;&gt;15 -->
<g id="edge15" class="edge">
<title>13&#45;&gt;15</title>
<path fill="none" stroke="#000000" d="M585.4388,-103.9815C595.3598,-94.607 605.8897,-84.6572 615.8008,-75.2921"/>
<polygon fill="#000000" stroke="#000000" points="618.3743,-77.6757 623.2389,-68.2637 613.5666,-72.5878 618.3743,-77.6757"/>
</g>
</g>
</svg>
